<mxfile host="app.diagrams.net" modified="2023-03-20T16:24:08.645Z" agent="5.0 (Macintosh; Intel Mac OS X 10_15_7) AppleWebKit/537.36 (KHTML, like Gecko) Chrome/111.0.0.0 Safari/537.36" etag="EEubVGBQzljJt3u_COB3" version="21.0.8" type="github">
  <diagram name="Pagina-1" id="8j_9WyPeeoJBeD8P9ccP">
    <mxGraphModel dx="3088" dy="828" grid="1" gridSize="10" guides="1" tooltips="1" connect="1" arrows="1" fold="1" page="1" pageScale="1" pageWidth="827" pageHeight="1169" math="0" shadow="0">
      <root>
        <mxCell id="0" />
        <mxCell id="1" parent="0" />
        <mxCell id="5QfRz2Dah1hT-SZcgMO9-1" value="User" style="shape=umlActor;verticalLabelPosition=bottom;verticalAlign=top;html=1;outlineConnect=0;fontSize=16;" parent="1" vertex="1">
          <mxGeometry x="-960" y="450" width="30" height="60" as="geometry" />
        </mxCell>
        <mxCell id="5QfRz2Dah1hT-SZcgMO9-2" value="" style="rounded=0;whiteSpace=wrap;html=1;" parent="1" vertex="1">
          <mxGeometry x="-880" y="240" width="560" height="700" as="geometry" />
        </mxCell>
        <mxCell id="5QfRz2Dah1hT-SZcgMO9-3" value="&lt;font style=&quot;font-size: 10px;&quot;&gt;SIGN UP&lt;/font&gt;" style="ellipse;whiteSpace=wrap;html=1;fillColor=#f8cecc;strokeColor=#b85450;" parent="1" vertex="1">
          <mxGeometry x="-775" y="485" width="90" height="40" as="geometry" />
        </mxCell>
        <mxCell id="5QfRz2Dah1hT-SZcgMO9-4" value="&lt;font style=&quot;font-size: 10px;&quot;&gt;SIGN IN&lt;/font&gt;" style="ellipse;whiteSpace=wrap;html=1;fillColor=#f8cecc;strokeColor=#b85450;" parent="1" vertex="1">
          <mxGeometry x="-770" y="396" width="90" height="40" as="geometry" />
        </mxCell>
        <mxCell id="5QfRz2Dah1hT-SZcgMO9-5" value="&lt;font style=&quot;font-size: 9px;&quot;&gt;INCORRECT&lt;br style=&quot;font-size: 9px;&quot;&gt;CREDENTIALS&lt;/font&gt;" style="ellipse;whiteSpace=wrap;html=1;fillColor=#dae8fc;strokeColor=#6c8ebf;fontSize=9;strokeWidth=1;fillStyle=hatch;" parent="1" vertex="1">
          <mxGeometry x="-478" y="371" width="100" height="50" as="geometry" />
        </mxCell>
        <mxCell id="5QfRz2Dah1hT-SZcgMO9-6" value="&amp;lt;&amp;lt;extends&amp;gt;&amp;gt;" style="endArrow=block;endFill=0;html=1;rounded=0;dashed=1;exitX=0;exitY=0.5;exitDx=0;exitDy=0;entryX=1;entryY=0.5;entryDx=0;entryDy=0;" parent="1" source="5QfRz2Dah1hT-SZcgMO9-5" target="5QfRz2Dah1hT-SZcgMO9-4" edge="1">
          <mxGeometry x="-0.0053" width="160" relative="1" as="geometry">
            <mxPoint x="-610" y="451" as="sourcePoint" />
            <mxPoint x="-450" y="451" as="targetPoint" />
            <Array as="points" />
            <mxPoint as="offset" />
          </mxGeometry>
        </mxCell>
        <mxCell id="5QfRz2Dah1hT-SZcgMO9-7" value="&amp;lt;&amp;lt;extends&amp;gt;&amp;gt;" style="endArrow=block;endFill=0;html=1;rounded=0;dashed=1;exitX=0.5;exitY=1;exitDx=0;exitDy=0;entryX=0.5;entryY=0;entryDx=0;entryDy=0;" parent="1" source="5QfRz2Dah1hT-SZcgMO9-10" target="5QfRz2Dah1hT-SZcgMO9-4" edge="1">
          <mxGeometry x="-0.0091" width="160" relative="1" as="geometry">
            <mxPoint x="-720" y="321" as="sourcePoint" />
            <mxPoint x="-810" y="376" as="targetPoint" />
            <Array as="points" />
            <mxPoint as="offset" />
          </mxGeometry>
        </mxCell>
        <mxCell id="5QfRz2Dah1hT-SZcgMO9-8" value="&amp;lt;&amp;lt;include&amp;gt;&amp;gt;" style="html=1;verticalAlign=bottom;labelBackgroundColor=none;endArrow=open;endFill=0;dashed=1;rounded=0;exitX=0.744;exitY=0.1;exitDx=0;exitDy=0;exitPerimeter=0;entryX=0;entryY=1;entryDx=0;entryDy=0;" parent="1" source="5QfRz2Dah1hT-SZcgMO9-4" target="5QfRz2Dah1hT-SZcgMO9-9" edge="1">
          <mxGeometry x="-0.0328" y="11" width="160" relative="1" as="geometry">
            <mxPoint x="-642" y="321" as="sourcePoint" />
            <mxPoint x="-571" y="320" as="targetPoint" />
            <mxPoint x="-1" as="offset" />
          </mxGeometry>
        </mxCell>
        <mxCell id="5QfRz2Dah1hT-SZcgMO9-9" value="&lt;font style=&quot;font-size: 9px;&quot;&gt;VERIFY CREDENTIALS&lt;/font&gt;" style="ellipse;whiteSpace=wrap;html=1;fillColor=#d5e8d4;strokeColor=#82b366;fontSize=9;strokeWidth=1;fillStyle=hatch;" parent="1" vertex="1">
          <mxGeometry x="-570" y="290" width="108" height="50" as="geometry" />
        </mxCell>
        <mxCell id="5QfRz2Dah1hT-SZcgMO9-10" value="&lt;font style=&quot;font-size: 9px;&quot;&gt;RETRIEVE&lt;br style=&quot;font-size: 9px;&quot;&gt;CREDENTIALS&lt;/font&gt;" style="ellipse;whiteSpace=wrap;html=1;fillColor=#dae8fc;strokeColor=#6c8ebf;fontSize=9;strokeWidth=1;fillStyle=hatch;" parent="1" vertex="1">
          <mxGeometry x="-760" y="275" width="100" height="50" as="geometry" />
        </mxCell>
        <mxCell id="5QfRz2Dah1hT-SZcgMO9-11" style="edgeStyle=none;rounded=0;orthogonalLoop=1;jettySize=auto;html=1;entryX=0;entryY=0.5;entryDx=0;entryDy=0;strokeColor=default;strokeWidth=1;startArrow=none;startFill=0;endArrow=none;endFill=0;" parent="1" target="5QfRz2Dah1hT-SZcgMO9-4" edge="1">
          <mxGeometry relative="1" as="geometry">
            <mxPoint x="-930" y="481" as="sourcePoint" />
            <mxPoint x="-800" y="421" as="targetPoint" />
          </mxGeometry>
        </mxCell>
        <mxCell id="5QfRz2Dah1hT-SZcgMO9-12" style="edgeStyle=none;rounded=0;orthogonalLoop=1;jettySize=auto;html=1;entryX=0;entryY=0.5;entryDx=0;entryDy=0;strokeColor=default;strokeWidth=1;startArrow=none;startFill=0;endArrow=none;endFill=0;" parent="1" target="5QfRz2Dah1hT-SZcgMO9-3" edge="1">
          <mxGeometry relative="1" as="geometry">
            <mxPoint x="-930" y="480" as="sourcePoint" />
            <mxPoint x="-760" y="426" as="targetPoint" />
          </mxGeometry>
        </mxCell>
        <mxCell id="5QfRz2Dah1hT-SZcgMO9-13" value="&amp;lt;&amp;lt;extends&amp;gt;&amp;gt;" style="endArrow=block;endFill=0;html=1;rounded=0;dashed=1;entryX=1;entryY=0;entryDx=0;entryDy=0;exitX=0;exitY=0.5;exitDx=0;exitDy=0;" parent="1" source="5QfRz2Dah1hT-SZcgMO9-14" target="5QfRz2Dah1hT-SZcgMO9-3" edge="1">
          <mxGeometry x="-0.0053" width="160" relative="1" as="geometry">
            <mxPoint x="-525" y="479.9999999999998" as="sourcePoint" />
            <mxPoint x="-675" y="500" as="targetPoint" />
            <Array as="points" />
            <mxPoint as="offset" />
          </mxGeometry>
        </mxCell>
        <mxCell id="5QfRz2Dah1hT-SZcgMO9-14" value="CREDENTIALS NOT VALID" style="ellipse;whiteSpace=wrap;html=1;fillColor=#dae8fc;strokeColor=#6c8ebf;fontSize=9;strokeWidth=1;fillStyle=hatch;" parent="1" vertex="1">
          <mxGeometry x="-525" y="455" width="100" height="50" as="geometry" />
        </mxCell>
        <mxCell id="5QfRz2Dah1hT-SZcgMO9-15" value="&amp;lt;&amp;lt;include&amp;gt;&amp;gt;" style="html=1;verticalAlign=bottom;labelBackgroundColor=none;endArrow=open;endFill=0;dashed=1;rounded=0;exitX=1;exitY=0.5;exitDx=0;exitDy=0;entryX=0;entryY=0;entryDx=0;entryDy=0;" parent="1" source="5QfRz2Dah1hT-SZcgMO9-3" target="5QfRz2Dah1hT-SZcgMO9-16" edge="1">
          <mxGeometry x="0.2306" y="8" width="160" relative="1" as="geometry">
            <mxPoint x="-695" y="622" as="sourcePoint" />
            <mxPoint x="-546" y="545" as="targetPoint" />
            <mxPoint as="offset" />
          </mxGeometry>
        </mxCell>
        <mxCell id="5QfRz2Dah1hT-SZcgMO9-16" value="&lt;font style=&quot;font-size: 9px;&quot;&gt;VERIFY CREDENTIALS&lt;/font&gt;" style="ellipse;whiteSpace=wrap;html=1;fillColor=#d5e8d4;strokeColor=#82b366;fontSize=9;strokeWidth=1;fillStyle=hatch;" parent="1" vertex="1">
          <mxGeometry x="-533" y="535" width="108" height="50" as="geometry" />
        </mxCell>
        <mxCell id="5QfRz2Dah1hT-SZcgMO9-17" value="&lt;font size=&quot;1&quot;&gt;VIEW NOTIFICATION&lt;/font&gt;" style="ellipse;whiteSpace=wrap;html=1;fillColor=#f8cecc;strokeColor=#b85450;" parent="1" vertex="1">
          <mxGeometry x="-786" y="562" width="106" height="45.5" as="geometry" />
        </mxCell>
        <mxCell id="5QfRz2Dah1hT-SZcgMO9-18" value="&amp;lt;&amp;lt;extends&amp;gt;&amp;gt;" style="endArrow=block;endFill=0;html=1;rounded=0;dashed=1;entryX=1;entryY=0.5;entryDx=0;entryDy=0;exitX=0;exitY=0.5;exitDx=0;exitDy=0;" parent="1" source="5QfRz2Dah1hT-SZcgMO9-19" target="5QfRz2Dah1hT-SZcgMO9-17" edge="1">
          <mxGeometry x="-0.0091" width="160" relative="1" as="geometry">
            <mxPoint x="-547" y="650" as="sourcePoint" />
            <mxPoint x="-653" y="620" as="targetPoint" />
            <Array as="points" />
            <mxPoint as="offset" />
          </mxGeometry>
        </mxCell>
        <mxCell id="5QfRz2Dah1hT-SZcgMO9-19" value="CANCEL&lt;br&gt;NOTIFICATION" style="ellipse;whiteSpace=wrap;html=1;fillColor=#dae8fc;strokeColor=#6c8ebf;fontSize=9;strokeWidth=1;fillStyle=hatch;" parent="1" vertex="1">
          <mxGeometry x="-580" y="600" width="100" height="40" as="geometry" />
        </mxCell>
        <mxCell id="5QfRz2Dah1hT-SZcgMO9-20" style="edgeStyle=none;rounded=0;orthogonalLoop=1;jettySize=auto;html=1;entryX=0;entryY=0.5;entryDx=0;entryDy=0;strokeColor=default;strokeWidth=1;startArrow=none;startFill=0;endArrow=none;endFill=0;" parent="1" target="5QfRz2Dah1hT-SZcgMO9-17" edge="1">
          <mxGeometry relative="1" as="geometry">
            <mxPoint x="-930" y="480" as="sourcePoint" />
            <mxPoint x="-715" y="569" as="targetPoint" />
          </mxGeometry>
        </mxCell>
        <mxCell id="5QfRz2Dah1hT-SZcgMO9-21" value="&lt;font style=&quot;font-size: 10px;&quot;&gt;VIEW&amp;nbsp;&lt;br&gt;PROFILE&lt;/font&gt;" style="ellipse;whiteSpace=wrap;html=1;fillColor=#f8cecc;strokeColor=#b85450;" parent="1" vertex="1">
          <mxGeometry x="-840" y="685" width="90" height="45" as="geometry" />
        </mxCell>
        <mxCell id="5QfRz2Dah1hT-SZcgMO9-22" value="&lt;font style=&quot;font-size: 9px;&quot;&gt;EDIT&lt;br style=&quot;font-size: 9px;&quot;&gt;PERSONAL INFO&lt;br style=&quot;font-size: 9px;&quot;&gt;&lt;/font&gt;" style="ellipse;whiteSpace=wrap;html=1;fillColor=#dae8fc;strokeColor=#6c8ebf;fontSize=9;strokeWidth=1;fillStyle=hatch;" parent="1" vertex="1">
          <mxGeometry x="-480" y="640" width="96" height="50" as="geometry" />
        </mxCell>
        <mxCell id="5QfRz2Dah1hT-SZcgMO9-23" value="&amp;lt;&amp;lt;extends&amp;gt;&amp;gt;" style="endArrow=block;endFill=0;html=1;rounded=0;dashed=1;exitX=0;exitY=0.5;exitDx=0;exitDy=0;entryX=1;entryY=0;entryDx=0;entryDy=0;" parent="1" source="5QfRz2Dah1hT-SZcgMO9-22" target="5QfRz2Dah1hT-SZcgMO9-21" edge="1">
          <mxGeometry x="-0.0012" width="160" relative="1" as="geometry">
            <mxPoint x="-649.9999999999973" y="490" as="sourcePoint" />
            <mxPoint x="-740" y="550" as="targetPoint" />
            <Array as="points">
              <mxPoint x="-690" y="660" />
            </Array>
            <mxPoint as="offset" />
          </mxGeometry>
        </mxCell>
        <mxCell id="5QfRz2Dah1hT-SZcgMO9-24" value="&lt;font style=&quot;font-size: 9px;&quot;&gt;SHARE&lt;br&gt;PROFILE&lt;br style=&quot;font-size: 9px;&quot;&gt;&lt;/font&gt;" style="ellipse;whiteSpace=wrap;html=1;fillColor=#dae8fc;strokeColor=#6c8ebf;fontSize=9;strokeWidth=1;fillStyle=hatch;" parent="1" vertex="1">
          <mxGeometry x="-490" y="720" width="86" height="40" as="geometry" />
        </mxCell>
        <mxCell id="5QfRz2Dah1hT-SZcgMO9-25" value="&amp;lt;&amp;lt;extends&amp;gt;&amp;gt;" style="endArrow=block;endFill=0;html=1;rounded=0;dashed=1;exitX=0;exitY=0.5;exitDx=0;exitDy=0;entryX=1.011;entryY=0.395;entryDx=0;entryDy=0;entryPerimeter=0;" parent="1" source="5QfRz2Dah1hT-SZcgMO9-24" target="5QfRz2Dah1hT-SZcgMO9-21" edge="1">
          <mxGeometry x="-0.0012" width="160" relative="1" as="geometry">
            <mxPoint x="-511" y="710" as="sourcePoint" />
            <mxPoint x="-750" y="715" as="targetPoint" />
            <Array as="points" />
            <mxPoint as="offset" />
          </mxGeometry>
        </mxCell>
        <mxCell id="5QfRz2Dah1hT-SZcgMO9-26" value="&amp;lt;&amp;lt;extends&amp;gt;&amp;gt;" style="endArrow=block;endFill=0;html=1;rounded=0;dashed=1;entryX=1;entryY=1;entryDx=0;entryDy=0;exitX=0;exitY=0;exitDx=0;exitDy=0;" parent="1" source="5QfRz2Dah1hT-SZcgMO9-27" target="5QfRz2Dah1hT-SZcgMO9-21" edge="1">
          <mxGeometry x="-0.0012" width="160" relative="1" as="geometry">
            <mxPoint x="-680" y="760" as="sourcePoint" />
            <mxPoint x="-775" y="757" as="targetPoint" />
            <Array as="points">
              <mxPoint x="-680" y="770" />
            </Array>
            <mxPoint as="offset" />
          </mxGeometry>
        </mxCell>
        <mxCell id="5QfRz2Dah1hT-SZcgMO9-27" value="&lt;font style=&quot;font-size: 9px;&quot;&gt;EDIT PORTFOLIO&lt;br style=&quot;font-size: 9px;&quot;&gt;&lt;/font&gt;" style="ellipse;whiteSpace=wrap;html=1;fillColor=#dae8fc;strokeColor=#6c8ebf;fontSize=9;strokeWidth=1;fillStyle=hatch;" parent="1" vertex="1">
          <mxGeometry x="-510" y="790" width="85" height="40" as="geometry" />
        </mxCell>
        <mxCell id="5QfRz2Dah1hT-SZcgMO9-28" style="edgeStyle=none;rounded=0;orthogonalLoop=1;jettySize=auto;html=1;entryX=0.5;entryY=0;entryDx=0;entryDy=0;strokeColor=default;strokeWidth=1;startArrow=none;startFill=0;endArrow=none;endFill=0;" parent="1" target="5QfRz2Dah1hT-SZcgMO9-21" edge="1">
          <mxGeometry relative="1" as="geometry">
            <mxPoint x="-930" y="480" as="sourcePoint" />
            <mxPoint x="-858.5" y="666" as="targetPoint" />
          </mxGeometry>
        </mxCell>
        <mxCell id="5QfRz2Dah1hT-SZcgMO9-29" value="&lt;font size=&quot;1&quot;&gt;VIEW REVIEWS AND FEEDBACKS&lt;/font&gt;" style="ellipse;whiteSpace=wrap;html=1;fillColor=#dae8fc;strokeColor=#6c8ebf;fillStyle=hatch;" parent="1" vertex="1">
          <mxGeometry x="-848" y="790" width="106" height="45.5" as="geometry" />
        </mxCell>
        <mxCell id="5QfRz2Dah1hT-SZcgMO9-31" value="&lt;font style=&quot;font-size: 9px;&quot;&gt;ANSWER TO&lt;br&gt;FEEDBACK&lt;br style=&quot;font-size: 9px;&quot;&gt;&lt;/font&gt;" style="ellipse;whiteSpace=wrap;html=1;fillColor=#dae8fc;strokeColor=#6c8ebf;fontSize=9;strokeWidth=1;fillStyle=hatch;" parent="1" vertex="1">
          <mxGeometry x="-650" y="830" width="96" height="50" as="geometry" />
        </mxCell>
        <mxCell id="5QfRz2Dah1hT-SZcgMO9-32" value="&amp;lt;&amp;lt;extends&amp;gt;&amp;gt;" style="endArrow=block;endFill=0;html=1;rounded=0;dashed=1;exitX=0;exitY=0.5;exitDx=0;exitDy=0;entryX=1;entryY=0.5;entryDx=0;entryDy=0;" parent="1" source="5QfRz2Dah1hT-SZcgMO9-31" target="5QfRz2Dah1hT-SZcgMO9-29" edge="1">
          <mxGeometry x="-0.0012" width="160" relative="1" as="geometry">
            <mxPoint x="-525" y="877" as="sourcePoint" />
            <mxPoint x="-734" y="820" as="targetPoint" />
            <Array as="points" />
            <mxPoint as="offset" />
          </mxGeometry>
        </mxCell>
        <mxCell id="wBIy0E-D4kYmhLR-kcdL-1" value="&amp;lt;&amp;lt;extends&amp;gt;&amp;gt;" style="endArrow=block;endFill=0;html=1;rounded=0;dashed=1;exitX=0.5;exitY=0;exitDx=0;exitDy=0;entryX=0.5;entryY=1;entryDx=0;entryDy=0;" parent="1" source="5QfRz2Dah1hT-SZcgMO9-29" target="5QfRz2Dah1hT-SZcgMO9-21" edge="1">
          <mxGeometry x="-0.0012" width="160" relative="1" as="geometry">
            <mxPoint x="-626" y="855" as="sourcePoint" />
            <mxPoint x="-732" y="823" as="targetPoint" />
            <Array as="points" />
            <mxPoint as="offset" />
          </mxGeometry>
        </mxCell>
      </root>
    </mxGraphModel>
  </diagram>
</mxfile>
